{"title":"Talladega Nights The Ballad of Ricky Bobby 2006  BRRip Dual Audi","uid":10235691,"size":360597791,"categoryP":"video","categoryS":"movies","magnet":"?xt=urn:btih:5f85e8b6690af239abc354c1be14a3991e0363f9&amp;dn=Talladega+Nights+The+Ballad+of+Ricky+Bobby+2006++BRRip+Dual+Audi&amp;tr=udp%3A%2F%2Ftracker.openbittorrent.com%3A80&amp;tr=udp%3A%2F%2Fopen.demonii.com%3A1337&amp;tr=udp%3A%2F%2Ftracker.coppersurfer.tk%3A6969&amp;tr=udp%3A%2F%2Fexodus.desync.com%3A6969","seeders":1,"leechers":0,"uploader":"jatt13","files":1,"time":1401174638,"description":"Video\nID                             : 1\nFormat                         : AVC\nFormat/Info                    : Advanced Video Codec\nFormat profile                 : &lt;a class=&quot;__cf_email__&quot; href=&quot;/cdn-cgi/l/email-protection&quot; data-cfemail=&quot;3479555d5a7478071a05&quot;&gt;[email&amp;#160;protected]&lt;/a&gt;&lt;script data-cfhash='f9e31' type=&quot;text/javascript&quot;&gt;\n/* &lt;![CDATA[ */!function(){try{var t=&quot;currentScript&quot;in document?document.currentScript:function(){for(var t=document.getElementsByTagName(&quot;script&quot;),e=t.length;e--;)if(t[e].getAttribute(&quot;data-cfhash&quot;))return t[e]}();if(t&amp;&amp;t.previousSibling){var e,r,n,i,c=t.previousSibling,a=c.getAttribute(&quot;data-cfemail&quot;);if(a){for(e=&quot;&quot;,r=parseInt(a.substr(0,2),16),n=2;a.length-n;n+=2)i=parseInt(a.substr(n,2),16)^r,e+=String.fromCharCode(i);e=document.createTextNode(e),c.parentNode.replaceChild(e,c)}t.parentNode.removeChild(t);}}catch(u){}}()/* ]]&gt; */&lt;/script&gt;\nFormat settings, CABAC         : Yes\nFormat settings, ReFrames      : 4 frames\nCodec ID                       : V_MPEG4/ISO/AVC\nDuration                       : 1h 47mn\nBit rate                       : 350 Kbps\nWidth                          : 720 pixels\nHeight                         : 304 pixels\nDisplay aspect ratio           : 2.35:1\nFrame rate mode                : Constant\nFrame rate                     : 30.000 fps\nColor space                    : YUV\nChroma subsampling             : 4:2:0\nBit depth                      : 8 bits\nScan type                      : Progressive\nBits/(Pixel*Frame)             : 0.053\nStream size                    : 263 MiB (76%)\nTitle                          : GOPI SAHI\nWriting library                : x264 core 130 r2273 b3065e6\nLanguage                       : English\nDefault                        : Yes\nForced                         : No\nColor primaries                : BT.709\nTransfer characteristics       : BT.709\nMatrix coefficients            : BT.709\n\nAudio #1\nID                             : 2\nFormat                         : MPEG Audio\nFormat version                 : Version 1\nFormat profile                 : Layer 3\nMode                           : Joint stereo\nMode extension                 : MS Stereo\nCodec ID                       : A_MPEG/L3\nCodec ID/Hint                  : MP3\nDuration                       : 1h 47mn\nBit rate mode                  : Constant\nBit rate                       : 48.0 Kbps\nChannel count                  : 2 channels\nSampling rate                  : 44.1 KHz\nCompression mode               : Lossy\nStream size                    : 37.1 MiB (11%)\nTitle                          : GOPI SAHI\nWriting library                : LAME3.98.2\nLanguage                       : Hindi\nDefault                        : Yes\nForced                         : No\n\nAudio #2\nID                             : 3\nFormat                         : MPEG Audio\nFormat version                 : Version 1\nFormat profile                 : Layer 3\nMode                           : Joint stereo\nMode extension                 : MS Stereo\nCodec ID                       : A_MPEG/L3\nCodec ID/Hint                  : MP3\nDuration                       : 1h 47mn\nBit rate mode                  : Constant\nBit rate                       : 48.0 Kbps\nChannel count                  : 2 channels\nSampling rate                  : 44.1 KHz\nCompression mode               : Lossy\nStream size                    : 37.1 MiB (11%)\nTitle                          : GOPI SAHI\nWriting library                : LAME3.98.2\nLanguage                       : English\nDefault                        : No\nForced                         : No\n\n[IMG]http://i.imgur.com/3TWhAxJ.jpg[/IMG]\n[IMG]http://i.imgur.com/YbI2BVw.jpg[/IMG]\n[IMG]http://i.imgur.com/5BjpumM.jpg[/IMG]\n[IMG]http://i.imgur.com/FopcrRp.jpg[/IMG]","torrent":{"xt":"urn:btih:5f85e8b6690af239abc354c1be14a3991e0363f9","amp;dn":"Talladega+Nights+The+Ballad+of+Ricky+Bobby+2006++BRRip+Dual+Audi","amp;tr":["udp%3A%2F%2Ftracker.openbittorrent.com%3A80","udp%3A%2F%2Fopen.demonii.com%3A1337","udp%3A%2F%2Ftracker.coppersurfer.tk%3A6969","udp%3A%2F%2Fexodus.desync.com%3A6969"],"infoHash":"5f85e8b6690af239abc354c1be14a3991e0363f9","infoHashBuffer":{"type":"Buffer","data":[95,133,232,182,105,10,242,57,171,195,84,193,190,20,163,153,30,3,99,249]},"announce":[],"urlList":[]}}